# xmcd
#
# Track frame offsets:
#	150
#	18512
#	36422
#	56322
#	75514
#	91748
#	118132
#	138756
#	155898
#	171363
#
# Disc length: 2525 seconds
#
# Revision: 0
# Processed by: cddbd v1.5.2PL0 Copyright (c) Steve Scherf et al.
# Submitted via: dBpowerAMP V4.0
#
DISCID=7b09db0a
DTITLE=Killing Machine - Metamorphosis
DYEAR=2006
DGENRE=Speed Metal
TTITLE0=Killing Machine
TTITLE1=Scared Beyond The Black
TTITLE2=Fatal Chances
TTITLE3=Praise The Day
TTITLE4=In For The Kill
TTITLE5=Redemption From Genocide
TTITLE6=Loup Garou
TTITLE7=In The Storm
TTITLE8=What Makes You God?
TTITLE9=Burn In The Wind
EXTD=
EXTT0=
EXTT1=
EXTT2=
EXTT3=
EXTT4=
EXTT5=
EXTT6=
EXTT7=
EXTT8=
EXTT9=
PLAYORDER=
